<svg xmlns="http://www.w3.org/2000/svg" viewBox="0 0 392 96" role="img" aria-labelledby="title desc">
  <title id="title">EmbodiK wordmark</title>
  <desc id="desc">The EmbodiK C-shaped mark with a blue policy bar branching to three robot nodes, followed by the EmbodiK wordmark.</desc>
  <g fill="none" stroke-linecap="round" stroke-linejoin="round">
    <path d="M87 18a39 39 0 1 0 0 60" stroke="#07172f" stroke-width="7.5"/>
    <path d="M36 48h39" stroke="#2d65f2" stroke-width="12"/>
    <path d="M81 48c31 0 34-31 61-31" stroke="#4f79ee" stroke-width="4"/>
    <path d="M81 48h61" stroke="#2d65f2" stroke-width="4"/>
    <path d="M81 48c31 0 34 31 61 31" stroke="#4f79ee" stroke-width="4"/>
    <path d="M142 17h9" stroke="#07172f" stroke-width="4"/>
    <path d="M142 79h9" stroke="#07172f" stroke-width="4"/>
  </g>
  <circle cx="78" cy="48" r="4.2" fill="#2d65f2"/>
  <circle cx="154" cy="17" r="7" fill="#07172f"/>
  <circle cx="145" cy="48" r="7" fill="#2d65f2"/>
  <circle cx="154" cy="79" r="7" fill="#07172f"/>
  <path fill="#07172f" transform="translate(181 61) scale(1 -1)" d="M3.35,0 L3.35,27.03 L19.85,27.03 L19.85,23.79 L7.14,23.79 L7.14,15.76 L18.45,15.76 L18.45,12.6 L7.14,12.6 L7.14,3.24 L20.83,3.24 L20.83,0 L3.35,0 Z M25.39,19.7 Q26.64,20.01 28.69,20.35 Q30.73,20.71 33.42,20.71 Q35.37,20.71 36.7,20.18 Q38.03,19.66 38.92,18.64 Q39.2,18.84 39.78,19.18 Q40.37,19.54 41.22,19.87 Q42.08,20.2 43.13,20.45 Q44.19,20.71 45.39,20.71 Q47.73,20.71 49.22,20.02 Q50.7,19.34 51.54,18.09 Q52.38,16.85 52.67,15.13 Q52.96,13.42 52.96,11.39 L52.96,0 L49.34,0 L49.34,10.61 Q49.34,12.4 49.16,13.69 Q48.98,14.98 48.5,15.83 Q48.01,16.69 47.17,17.1 Q46.33,17.51 45,17.51 Q43.17,17.51 41.98,17.03 Q40.79,16.54 40.37,16.15 Q40.68,15.13 40.83,13.92 Q40.99,12.71 40.99,11.39 L40.99,0 L37.36,0 L37.36,10.61 Q37.36,12.4 37.17,13.69 Q36.97,14.98 36.49,15.83 Q36,16.69 35.16,17.1 Q34.32,17.51 33.03,17.51 Q32.49,17.51 31.86,17.47 Q31.24,17.43 30.67,17.37 Q30.11,17.32 29.64,17.24 Q29.17,17.16 29.01,17.12 L29.01,0 L25.39,0 L25.39,19.7 Z M62.59,19.38 Q63.26,19.81 64.6,20.28 Q65.95,20.75 67.71,20.75 Q69.89,20.75 71.58,19.97 Q73.28,19.19 74.45,17.78 Q75.62,16.38 76.23,14.43 Q76.83,12.48 76.83,10.14 Q76.83,7.68 76.1,5.71 Q75.38,3.74 74.06,2.38 Q72.73,1.01 70.86,0.27 Q68.99,-0.47 66.65,-0.47 Q64.12,-0.47 62.17,-0.12 Q60.22,0.23 58.97,0.58 L58.97,29.64 L62.59,30.26 L62.59,19.38 Z M62.59,3.16 Q63.14,3 64.14,2.86 Q65.13,2.73 66.61,2.73 Q69.53,2.73 71.29,4.66 Q73.04,6.59 73.04,10.14 Q73.04,11.7 72.73,13.07 Q72.42,14.43 71.72,15.42 Q71.02,16.42 69.91,16.98 Q68.8,17.55 67.24,17.55 Q65.76,17.55 64.51,17.04 Q63.26,16.54 62.59,15.99 L62.59,3.16 Z M99.84,10.14 Q99.84,7.72 99.14,5.77 Q98.43,3.82 97.17,2.41 Q95.9,1.01 94.14,0.25 Q92.39,-0.51 90.32,-0.51 Q88.26,-0.51 86.5,0.25 Q84.75,1.01 83.48,2.41 Q82.21,3.82 81.51,5.77 Q80.81,7.72 80.81,10.14 Q80.81,12.52 81.51,14.48 Q82.21,16.46 83.48,17.86 Q84.75,19.27 86.5,20.02 Q88.26,20.79 90.32,20.79 Q92.39,20.79 94.14,20.02 Q95.9,19.27 97.17,17.86 Q98.43,16.46 99.14,14.48 Q99.84,12.52 99.84,10.14 Z M96.06,10.14 Q96.06,13.57 94.52,15.58 Q92.97,17.59 90.32,17.59 Q87.67,17.59 86.13,15.58 Q84.59,13.57 84.59,10.14 Q84.59,6.71 86.13,4.7 Q87.67,2.69 90.32,2.69 Q92.97,2.69 94.52,4.7 Q96.06,6.71 96.06,10.14 Z M118.05,15.99 Q117.39,16.54 116.14,17.04 Q114.89,17.55 113.41,17.55 Q111.85,17.55 110.74,16.98 Q109.63,16.42 108.93,15.42 Q108.23,14.43 107.91,13.07 Q107.6,11.7 107.6,10.14 Q107.6,6.59 109.35,4.66 Q111.11,2.73 114.03,2.73 Q115.52,2.73 116.51,2.86 Q117.51,3 118.05,3.16 L118.05,15.99 Z M118.05,29.64 L121.68,30.26 L121.68,0.58 Q120.43,0.23 118.48,-0.12 Q116.53,-0.47 114,-0.47 Q111.66,-0.47 109.78,0.27 Q107.91,1.01 106.58,2.38 Q105.26,3.74 104.53,5.71 Q103.82,7.68 103.82,10.14 Q103.82,12.48 104.42,14.43 Q105.03,16.38 106.2,17.78 Q107.37,19.19 109.06,19.97 Q110.76,20.75 112.94,20.75 Q114.7,20.75 116.05,20.28 Q117.39,19.81 118.05,19.38 L118.05,29.64 Z M131.55,0 L127.92,0 L127.92,20.28 L131.55,20.28 L131.55,0 Z M129.71,23.95 Q128.74,23.95 128.05,24.59 Q127.37,25.23 127.37,26.32 Q127.37,27.42 128.05,28.06 Q128.74,28.7 129.71,28.7 Q130.69,28.7 131.37,28.06 Q132.05,27.42 132.05,26.32 Q132.05,25.23 131.37,24.59 Q130.69,23.95 129.71,23.95 Z M158.03,27.03 Q156.82,25.7 155.29,24.08 Q153.78,22.46 152.12,20.77 Q150.46,19.07 148.82,17.43 Q147.18,15.79 145.75,14.39 Q147.42,13.22 149.29,11.51 Q151.16,9.79 152.95,7.84 Q154.75,5.89 156.33,3.86 Q157.91,1.83 158.96,0 L154.52,0 Q153.35,1.83 151.83,3.69 Q150.3,5.54 148.61,7.23 Q146.92,8.93 145.18,10.37 Q143.44,11.82 141.8,12.83 L141.8,0 L138.02,0 L138.02,27.03 L141.8,27.03 L141.8,15.09 Q143.17,16.38 144.81,17.99 Q146.45,19.62 148.04,21.25 Q149.65,22.89 151.07,24.39 Q152.49,25.9 153.47,27.03 L158.03,27.03 Z"/>
</svg>
